<svg width="396" height="105" viewBox="0 0 396 105" fill="none" xmlns="http://www.w3.org/2000/svg">
<path d="M20.7995 93.2414C25.6667 92.3118 30.3334 91.4003 35 90.5071C35.9297 90.3248 36.586 90.1972 37.7891 90.1607C38.6823 90.1243 40.5781 90.0878 40.4141 91.0539C40.1953 91.8378 39.9401 92.3664 38.3542 92.8404C34.2526 94.0435 30.0052 94.6269 25.7943 95.2284C22.0755 95.7571 19.2318 96.1034 15.9141 96.3769C14.3646 96.5045 13.7448 95.7388 13.9271 94.317C14.0912 93.0409 14.237 91.7284 14.638 90.5071C16.0599 86.0956 17.5912 81.7388 19.086 77.3456C19.2682 76.7987 19.3776 76.3612 19.6875 75.7414C20.0703 74.9941 20.3073 74.4289 21.0912 74.6477C21.8386 74.8482 21.8021 75.942 21.6745 76.4888C20.7084 81.0826 18.5573 90.5253 18.5573 91.0539C20.9453 89.5227 23.1875 88.1555 25.3568 86.6607C40.4141 76.1789 54.5964 64.7128 65.8802 50.0201C74.8125 38.3899 82.2136 25.9029 87.6823 12.2857C88.0104 11.4836 88.4115 10.6998 88.8125 9.95238C89.3412 8.93155 89.7969 8.49404 90.3438 8.73102C91.3099 9.31436 91.1276 10.0982 91.0365 10.7362C90.8724 12.0123 90.4349 13.2701 90.0156 14.4914C84.237 30.7701 75.0495 45.0253 63.9479 58.1321C52.5547 71.5852 38.6276 81.9394 23.7708 91.1451C22.9688 91.6008 21.0912 92.9133 20.7995 93.2414Z" fill="black"/>
<path d="M374.408 93.2414C369.356 92.3118 364.511 91.4003 359.667 90.5071C358.702 90.3248 358.02 90.1972 356.771 90.1607C355.844 90.1243 353.876 90.0878 354.046 91.0539C354.273 91.8378 354.538 92.3664 356.185 92.8404C360.443 94.0435 364.852 94.6269 369.223 95.2284C373.084 95.7571 376.036 96.1034 379.48 96.3769C381.088 96.5045 381.732 95.7388 381.542 94.317C381.372 93.0409 381.221 91.7284 380.804 90.5071C379.328 86.0956 377.739 81.7388 376.187 77.3456C375.998 76.7987 375.884 76.3612 375.562 75.7414C375.165 74.9941 374.919 74.4289 374.105 74.6477C373.33 74.8482 373.367 75.942 373.5 76.4888C374.503 81.0826 376.736 90.5253 376.736 91.0539C374.257 89.5227 371.929 88.1555 369.677 86.6607C354.046 76.1789 339.324 64.7128 327.61 50.0201C318.337 38.3899 310.655 25.9029 304.977 12.2857C304.637 11.4836 304.22 10.6998 303.804 9.95238C303.255 8.93155 302.782 8.49404 302.215 8.73102C301.212 9.31436 301.401 10.0982 301.495 10.7362C301.666 12.0123 302.12 13.2701 302.555 14.4914C308.554 30.7701 318.091 45.0253 329.616 58.1321C341.443 71.5852 355.901 81.9394 371.324 91.1451C372.156 91.6008 374.105 92.9133 374.408 93.2414Z" fill="black"/>
</svg>
