<svg width="98" height="100" viewBox="0 0 98 100" fill="none" xmlns="http://www.w3.org/2000/svg">
<path d="M26.5417 41.395C25.6311 41.395 24.7572 41.5357 23.8875 41.6641C24.1692 40.7037 24.4592 39.7268 24.9247 38.8492C25.3902 37.5742 26.117 36.469 26.8397 35.3555C27.4441 34.1509 28.5098 33.3354 29.2938 32.3047C30.1146 31.3029 31.2334 30.6364 32.1195 29.8044C32.9892 28.9351 34.1285 28.5005 35.035 27.8878C35.9823 27.3373 36.8071 26.7288 37.6891 26.439L39.8901 25.52L41.8256 24.7045L39.8452 16.6822L37.4074 17.2783C36.6275 17.477 35.6761 17.7088 34.594 17.9861C33.4874 18.1931 32.3073 18.7602 30.9925 19.2777C29.694 19.8655 28.1913 20.2629 26.7948 21.2067C25.3902 22.1091 23.7691 22.8625 22.3399 24.0712C20.9557 25.3172 19.2856 26.3976 18.0524 27.983C16.7049 29.465 15.3737 31.0214 14.3407 32.7931C13.1442 34.482 12.3316 36.3365 11.4741 38.1703C10.6983 40.0041 10.0736 41.8793 9.56315 43.7007C8.5954 47.3517 8.16257 50.8207 7.99515 53.7887C7.85632 56.7608 7.93798 59.2321 8.10948 61.0204C8.17073 61.8648 8.28507 62.6845 8.36673 63.2516L8.46882 63.947L8.57498 63.9222C9.30125 67.3614 10.9731 70.5219 13.3973 73.0381C15.8214 75.5543 18.8986 77.3233 22.2731 78.1406C25.6476 78.9579 29.1813 78.79 32.4656 77.6563C35.7498 76.5227 38.6504 74.4696 40.8317 71.7346C43.013 68.9996 44.386 65.6944 44.7918 62.2014C45.1975 58.7083 44.6195 55.1703 43.1246 51.9964C41.6297 48.8225 39.2789 46.1424 36.3443 44.2664C33.4097 42.3903 30.0111 41.3948 26.5417 41.395ZM71.4583 41.395C70.5477 41.395 69.6739 41.5357 68.8042 41.6641C69.0859 40.7037 69.3758 39.7268 69.8413 38.8492C70.3068 37.5742 71.0336 36.469 71.7564 35.3555C72.3607 34.1509 73.4265 33.3354 74.2105 32.3047C75.0312 31.3029 76.1501 30.6364 77.0361 29.8044C77.9059 28.9351 79.0452 28.5005 79.9517 27.8878C80.899 27.3373 81.7238 26.7288 82.6058 26.439L84.8067 25.52L86.7422 24.7045L84.7618 16.6822L82.3241 17.2783C81.5442 17.477 80.5927 17.7088 79.5107 17.9861C78.4041 18.1931 77.224 18.7602 75.9091 19.2777C74.6147 19.8696 73.108 20.2629 71.7115 21.2108C70.3068 22.1132 68.6857 22.8666 67.2566 24.0753C65.8723 25.3213 64.2022 26.4017 62.9691 27.983C61.6216 29.465 60.2904 31.0214 59.2573 32.7931C58.0609 34.482 57.2483 36.3365 56.3908 38.1703C55.615 40.0041 54.9902 41.8793 54.4798 43.7007C53.5121 47.3517 53.0792 50.8207 52.9118 53.7887C52.773 56.7608 52.8546 59.2321 53.0261 61.0204C53.0874 61.8648 53.2017 62.6845 53.2834 63.2516L53.3855 63.947L53.4917 63.9222C54.2179 67.3614 55.8898 70.5219 58.3139 73.0381C60.738 75.5543 63.8153 77.3233 67.1898 78.1406C70.5642 78.9579 74.098 78.79 77.3822 77.6563C80.6665 76.5227 83.567 74.4696 85.7484 71.7346C87.9297 68.9996 89.3027 65.6944 89.7084 62.2014C90.1142 58.7083 89.5362 55.1703 88.0413 51.9964C86.5464 48.8225 84.1956 46.1424 81.261 44.2664C78.3263 42.3903 74.9277 41.3948 71.4583 41.395Z" fill="#ADF0D1"/>
</svg>
