<svg id="visual" viewBox="0 0 900 600" width="900" height="600" xmlns="http://www.w3.org/2000/svg" xmlns:xlink="http://www.w3.org/1999/xlink" version="1.1"><rect x="0" y="0" width="900" height="600" fill="#002"></rect><defs><linearGradient id="grad1_0" x1="33.3%" y1="0%" x2="100%" y2="100%"><stop offset="20%" stop-color="#adf0d1" stop-opacity="1"></stop><stop offset="80%" stop-color="#adf0d1" stop-opacity="1"></stop></linearGradient></defs><defs><linearGradient id="grad1_1" x1="33.3%" y1="0%" x2="100%" y2="100%"><stop offset="20%" stop-color="#adf0d1" stop-opacity="1"></stop><stop offset="80%" stop-color="#60b2b0" stop-opacity="1"></stop></linearGradient></defs><defs><linearGradient id="grad1_2" x1="33.3%" y1="0%" x2="100%" y2="100%"><stop offset="20%" stop-color="#277589" stop-opacity="1"></stop><stop offset="80%" stop-color="#60b2b0" stop-opacity="1"></stop></linearGradient></defs><defs><linearGradient id="grad1_3" x1="33.3%" y1="0%" x2="100%" y2="100%"><stop offset="20%" stop-color="#277589" stop-opacity="1"></stop><stop offset="80%" stop-color="#083b58" stop-opacity="1"></stop></linearGradient></defs><defs><linearGradient id="grad1_4" x1="33.3%" y1="0%" x2="100%" y2="100%"><stop offset="20%" stop-color="#000022" stop-opacity="1"></stop><stop offset="80%" stop-color="#083b58" stop-opacity="1"></stop></linearGradient></defs><defs><linearGradient id="grad2_0" x1="0%" y1="0%" x2="66.7%" y2="100%"><stop offset="20%" stop-color="#adf0d1" stop-opacity="1"></stop><stop offset="80%" stop-color="#adf0d1" stop-opacity="1"></stop></linearGradient></defs><defs><linearGradient id="grad2_1" x1="0%" y1="0%" x2="66.7%" y2="100%"><stop offset="20%" stop-color="#60b2b0" stop-opacity="1"></stop><stop offset="80%" stop-color="#adf0d1" stop-opacity="1"></stop></linearGradient></defs><defs><linearGradient id="grad2_2" x1="0%" y1="0%" x2="66.7%" y2="100%"><stop offset="20%" stop-color="#60b2b0" stop-opacity="1"></stop><stop offset="80%" stop-color="#277589" stop-opacity="1"></stop></linearGradient></defs><defs><linearGradient id="grad2_3" x1="0%" y1="0%" x2="66.7%" y2="100%"><stop offset="20%" stop-color="#083b58" stop-opacity="1"></stop><stop offset="80%" stop-color="#277589" stop-opacity="1"></stop></linearGradient></defs><defs><linearGradient id="grad2_4" x1="0%" y1="0%" x2="66.7%" y2="100%"><stop offset="20%" stop-color="#083b58" stop-opacity="1"></stop><stop offset="80%" stop-color="#000022" stop-opacity="1"></stop></linearGradient></defs><g transform="translate(900, 0)"><path d="M0 378.6C-55.4 350.5 -110.7 322.5 -170 294.4C-229.3 266.4 -292.4 238.4 -327.9 189.3C-363.3 140.2 -370.9 70.1 -378.6 0L0 0Z" fill="#04213d"></path><path d="M0 302.9C-44.3 280.4 -88.6 258 -136 235.6C-183.4 213.1 -234 190.7 -262.3 151.4C-290.6 112.2 -296.7 56.1 -302.9 0L0 0Z" fill="#145771"></path><path d="M0 227.1C-33.2 210.3 -66.4 193.5 -102 176.7C-137.6 159.8 -175.5 143 -196.7 113.6C-218 84.1 -222.6 42.1 -227.1 0L0 0Z" fill="#40939e"></path><path d="M0 151.4C-22.1 140.2 -44.3 129 -68 117.8C-91.7 106.6 -117 95.3 -131.1 75.7C-145.3 56.1 -148.4 28 -151.4 0L0 0Z" fill="#84d1c1"></path><path d="M0 75.7C-11.1 70.1 -22.1 64.5 -34 58.9C-45.9 53.3 -58.5 47.7 -65.6 37.9C-72.7 28 -74.2 14 -75.7 0L0 0Z" fill="#adf0d1"></path></g><g transform="translate(0, 600)"><path d="M0 -378.6C64.4 -366.2 128.9 -353.9 187 -323.9C245.1 -293.9 297 -246.2 327.9 -189.3C358.7 -132.4 368.7 -66.2 378.6 0L0 0Z" fill="#04213d"></path><path d="M0 -302.9C51.5 -293 103.1 -283.1 149.6 -259.1C196.1 -235.1 237.6 -197 262.3 -151.4C287 -105.9 294.9 -52.9 302.9 0L0 0Z" fill="#145771"></path><path d="M0 -227.1C38.7 -219.7 77.3 -212.3 112.2 -194.3C147.1 -176.3 178.2 -147.7 196.7 -113.6C215.2 -79.4 221.2 -39.7 227.1 0L0 0Z" fill="#40939e"></path><path d="M0 -151.4C25.8 -146.5 51.5 -141.6 74.8 -129.6C98.1 -117.6 118.8 -98.5 131.1 -75.7C143.5 -52.9 147.5 -26.5 151.4 0L0 0Z" fill="#84d1c1"></path><path d="M0 -75.7C12.9 -73.2 25.8 -70.8 37.4 -64.8C49 -58.8 59.4 -49.2 65.6 -37.9C71.7 -26.5 73.7 -13.2 75.7 0L0 0Z" fill="#adf0d1"></path></g></svg>